<svg version="1" xmlns="http://www.w3.org/2000/svg" width="180" height="180" viewBox="0 0 135.000000 135.000000"><path d="M28 36.8l.1 36.8 5.3 3.1 5.4 3.1v-30c0-16.5.3-30.2.6-30.5.2-.3 5.3 2.4 11.3 5.9l10.8 6.4.1 20.4c.1 11.3.2 21 .3 21.6 0 .6 1.3 1.6 2.7 2.3 2.2 1 3.1.9 5-.4L72 74V31.5l11.5-6.7L95 18.1v30.4c0 16.8.3 30.5.6 30.5 1.8 0 9.4-5.5 9.5-6.8 0-1 .1-17.5.2-36.8l.2-35.2-3 1.5c-1.6.9-9.9 5.6-18.3 10.5s-15.9 9.1-16.6 9.4c-.7.3-9-4-18.5-9.5C39.7 6.6 31.1 1.6 30 1c-2-1.1-2-.6-2 35.8z"/><path d="M44.9 33c-.1 5-.1 8.4 0 31.8l.1 18.8 6.3 3.6c3.4 1.9 8.3 4.8 11 6.2l4.7 2.7 10.8-6.4 10.7-6.3.1-27.2c0-21.3-.2-27.2-1.2-26.8-.7.3-3.1 1.6-5.3 3.1L78 35v42.7l-5.8 3.1-5.8 3.1-5.5-3.3-5.4-3.2V56.5l-.1-20.9-5.2-3.3-5.2-3.4-.1 4.1zM11 123.5c0 6.3.3 7.7 2.2 9.5 2.7 2.5 6.9 2.6 9.9.1 2-1.6 2.3-2.8 2.3-9.2.1-6.5-.1-7.4-1.8-7.7-2.6-.5-3.3 1.1-2.9 7.2.2 3.9-.1 5.7-1.3 6.6-2.5 2.1-3.6-.2-3.6-7.4 0-6.3-.1-6.6-2.4-6.6s-2.4.3-2.4 7.5zm19.8-1.3c-.5 10.4 0 13 2.5 12.6 1.6-.2 2.1-1 2.2-3.2 0-4.2 1.7-4.2 3.9-.1 1.4 2.5 2.6 3.5 4.3 3.5 3 0 2.9-1-.6-6.7l-2.9-4.7 2.9-3.5 3-3.6-2.8-.3c-2-.3-3.2.3-4.6 2.2-2.4 3.3-3.6 3.3-3.2.1.2-2-.2-2.5-2.1-2.5-2 0-2.3.5-2.6 6.2zm19.7 3.3c0 9.2.1 9.5 2.3 9.5 2.1 0 2.8-1.7 2.3-5.8-.4-2.5 1.7-1.1 3.3 2.3 1.3 2.6 2.3 3.5 4.1 3.5 3 0 3.1-.8.8-4.9-1.3-2.3-1.5-3.3-.7-3.9 1.1-.7 1.8-3.2 1.5-5.9-.3-2.7-3.3-4.3-8.4-4.3h-5.2v9.5zm9-3.4c0 2-3.9 1.7-4.3-.4-.3-1.3.2-1.6 2-1.4 1.3.2 2.3 1 2.3 1.8zm10.4-4.9c-.1 1.6-.1 13.6 0 16.1.1 1.3.7 1.7 2.4 1.5 1.9-.3 2.2-.9 2-4.3-.1-3.9-.1-3.9 1.5-2 2.1 2.6 3.7 2.5 5.6 0 1.4-1.9 1.5-1.8 1.6 2.3 0 3.9.2 4.3 2.2 4 2.2-.3 2.3-.7 2.2-9.3 0-8.9 0-9-2.5-9.3-2.1-.3-2.9.4-4.4 3.9l-1.9 4.1-2-4.1c-1.5-3-2.6-4.1-4.3-4.1-1.3 0-2.3.6-2.4 1.2zm23.1 8.3v9.5h6.5c5.8 0 6.5-.2 6.5-2 0-1.9-1-2.3-6.2-2.3-1 0-1.8-.7-1.8-1.7 0-1.1.8-1.7 2.3-1.7 4.2-.1 4.7-.3 4.7-2.3 0-1.6-.7-2-3.5-2-2.4 0-3.5-.5-3.5-1.5 0-1.1 1.1-1.5 4-1.5 3.3 0 4-.3 4-2 0-1.8-.7-2-6.5-2H93v9.5zm17-7.5c0 1.4.7 2 2.3 2 2.2 0 2.4.4 2.5 5.7.1 9.3.1 9.3 2.1 9.3 2.4 0 2.7-1.1 2.6-8.8-.1-5.9 0-6.2 2.2-6.2 1.6 0 2.3-.6 2.3-2 0-1.8-.7-2-7-2s-7 .2-7 2z"/></svg>