<?xml version="1.0" standalone="no"?>
<!DOCTYPE svg PUBLIC "-//W3C//DTD SVG 20010904//EN"
 "http://www.w3.org/TR/2001/REC-SVG-20010904/DTD/svg10.dtd">
<svg version="1.0" xmlns="http://www.w3.org/2000/svg"
 width="135.000000pt" height="135.000000pt" viewBox="0 0 135.000000 135.000000"
 preserveAspectRatio="xMidYMid meet">
<metadata>
Created by potrace 1.11, written by Peter Selinger 2001-2013
</metadata>
<g transform="translate(0.000000,135.000000) scale(0.100000,-0.100000)"
fill="#000000" stroke="none">
<path d="M280 982 l1 -368 53 -31 54 -31 0 300 c0 165 3 302 6 305 2 3 53 -24
113 -59 l108 -64 1 -204 c1 -113 2 -210 3 -216 0 -6 13 -16 27 -23 22 -10 31
-9 50 4 l24 15 0 213 0 212 115 67 115 67 0 -304 c0 -168 3 -305 6 -305 18 0
94 55 95 68 0 10 1 175 2 368 l2 352 -30 -15 c-16 -9 -99 -56 -183 -105 -84
-49 -159 -91 -166 -94 -7 -3 -90 40 -185 95 -94 55 -180 105 -191 111 -20 11
-20 6 -20 -358z"/>
<path d="M449 1020 c-1 -50 -1 -84 0 -318 l1 -188 63 -36 c34 -19 83 -48 110
-62 l47 -27 108 64 107 63 1 272 c0 213 -2 272 -12 268 -7 -3 -31 -16 -53 -31
l-41 -25 0 -214 0 -213 -58 -31 -58 -31 -55 33 -54 32 0 209 -1 209 -52 33
-52 34 -1 -41z"/>
<path d="M110 115 c0 -63 3 -77 22 -95 27 -25 69 -26 99 -1 20 16 23 28 23 92
1 65 -1 74 -18 77 -26 5 -33 -11 -29 -72 2 -39 -1 -57 -13 -66 -25 -21 -36 2
-36 74 0 63 -1 66 -24 66 -23 0 -24 -3 -24 -75z"/>
<path d="M308 128 c-5 -104 0 -130 25 -126 16 2 21 10 22 32 0 42 17 42 39 1
14 -25 26 -35 43 -35 30 0 29 10 -6 67 l-29 47 29 35 30 36 -28 3 c-20 3 -32
-3 -46 -22 -24 -33 -36 -33 -32 -1 2 20 -2 25 -21 25 -20 0 -23 -5 -26 -62z"/>
<path d="M505 95 c0 -92 1 -95 23 -95 21 0 28 17 23 58 -4 25 17 11 33 -23 13
-26 23 -35 41 -35 30 0 31 8 8 49 -13 23 -15 33 -7 39 11 7 18 32 15 59 -3 27
-33 43 -84 43 l-52 0 0 -95z m90 34 c0 -20 -39 -17 -43 4 -3 13 2 16 20 14 13
-2 23 -10 23 -18z"/>
<path d="M699 178 c-1 -16 -1 -136 0 -161 1 -13 7 -17 24 -15 19 3 22 9 20 43
-1 39 -1 39 15 20 21 -26 37 -25 56 0 14 19 15 18 16 -23 0 -39 2 -43 22 -40
22 3 23 7 22 93 0 89 0 90 -25 93 -21 3 -29 -4 -44 -39 l-19 -41 -20 41 c-15
30 -26 41 -43 41 -13 0 -23 -6 -24 -12z"/>
<path d="M930 95 l0 -95 65 0 c58 0 65 2 65 20 0 19 -10 23 -62 23 -10 0 -18
7 -18 17 0 11 8 17 23 17 42 1 47 3 47 23 0 16 -7 20 -35 20 -24 0 -35 5 -35
15 0 11 11 15 40 15 33 0 40 3 40 20 0 18 -7 20 -65 20 l-65 0 0 -95z"/>
<path d="M1100 170 c0 -14 7 -20 23 -20 22 0 24 -4 25 -57 1 -93 1 -93 21 -93
24 0 27 11 26 88 -1 59 0 62 22 62 16 0 23 6 23 20 0 18 -7 20 -70 20 -63 0
-70 -2 -70 -20z"/>
</g>
</svg>
